<svg width="14" height="13" viewBox="0 0 14 13" fill="none" xmlns="http://www.w3.org/2000/svg">
<path d="M10 0.5C9.41783 0.5 8.84366 0.635544 8.32295 0.895898C7.80224 1.15625 7.3493 1.53426 7 2C6.52776 1.37035 5.86939 0.90525 5.11813 0.670574C4.36687 0.435899 3.56082 0.443548 2.81415 0.692438C2.06748 0.941328 1.41804 1.41884 0.957842 2.05734C0.49764 2.69583 0.25 3.46294 0.25 4.25C0.25 8.74375 6.49375 12.2875 6.75625 12.4375C6.83063 12.4793 6.91468 12.5009 7 12.5C7.08539 12.5015 7.1696 12.4799 7.24375 12.4375C8.39356 11.7653 9.47202 10.9779 10.4625 10.0875C12.6437 8.125 13.75 6.1625 13.75 4.25C13.75 3.25544 13.3549 2.30161 12.6517 1.59835C11.9484 0.895088 10.9946 0.5 10 0.5Z" fill="url(#paint0_linear_140_3495)"/>
<defs>
<linearGradient id="paint0_linear_140_3495" x1="2.5" y1="1.64286" x2="8.73605" y2="12.3186" gradientUnits="userSpaceOnUse">
<stop offset="0.423855" stop-color="#C70AF7"/>
<stop offset="0.970534" stop-color="#3D00EC"/>
</linearGradient>
</defs>
</svg>
