<svg width="36" height="36" viewBox="0 0 36 36" fill="none" xmlns="http://www.w3.org/2000/svg">
<circle cx="18" cy="18" r="16.1078" fill="url(#paint0_linear_244_66)" stroke="url(#paint1_linear_244_66)" stroke-width="2.21555"/>
<g filter="url(#filter0_d_244_66)">
<path d="M14.6531 13.0464C13.5033 13.0464 12.3792 13.3807 11.4231 14.0071C10.4671 14.6334 9.72189 15.5237 9.28185 16.5653C8.84181 17.6069 8.72668 18.7531 8.95101 19.8589C9.17534 20.9646 9.72905 21.9804 10.5421 22.7776C11.3552 23.5748 12.3911 24.1177 13.5189 24.3376C14.6467 24.5576 15.8157 24.4447 16.878 24.0133C17.9403 23.5818 18.8483 22.8512 19.4872 21.9138C20.126 20.9763 20.467 19.8742 20.467 18.7468C20.464 17.2358 19.8506 15.7876 18.7609 14.7192C17.6712 13.6508 16.1942 13.0493 14.6531 13.0464ZM16.688 19.114L14.0047 20.868C13.9307 20.9129 13.8457 20.9375 13.7587 20.9392C13.6849 20.9392 13.6122 20.9223 13.5463 20.8899C13.4748 20.8521 13.4151 20.7959 13.3738 20.7273C13.3324 20.6587 13.3109 20.5804 13.3115 20.5007V16.9928C13.3109 16.9132 13.3324 16.8348 13.3738 16.7663C13.4151 16.6977 13.4748 16.6415 13.5463 16.6037C13.6181 16.568 13.6981 16.5513 13.7784 16.5552C13.8588 16.559 13.9368 16.5833 14.0047 16.6256L16.688 18.3795C16.7503 18.4194 16.8014 18.4738 16.8369 18.538C16.8723 18.6021 16.8908 18.6739 16.8908 18.7468C16.8908 18.8197 16.8723 18.8915 16.8369 18.9556C16.8014 19.0197 16.7503 19.0742 16.688 19.114Z" fill="url(#paint2_linear_244_66)"/>
</g>
<rect x="19.4916" y="16.0963" width="5.99699" height="5.82057" fill="url(#paint3_linear_244_66)"/>
<g style="mix-blend-mode:saturation">
<rect x="19.4916" y="16.0963" width="5.99699" height="5.82057" fill="url(#paint4_linear_244_66)"/>
</g>
<g filter="url(#filter1_d_244_66)">
<path d="M22.8309 13.0464C21.681 13.0464 20.557 13.3807 19.6009 14.0071C18.6448 14.6334 17.8996 15.5237 17.4596 16.5653C17.0195 17.6069 16.9044 18.7531 17.1287 19.8589C17.3531 20.9646 17.9068 21.9804 18.7199 22.7776C19.5329 23.5748 20.5689 24.1177 21.6967 24.3376C22.8244 24.5576 23.9934 24.4447 25.0557 24.0133C26.1181 23.5818 27.0261 22.8512 27.6649 21.9138C28.3037 20.9763 28.6447 19.8742 28.6447 18.7468C28.6418 17.2358 28.0283 15.7876 26.9386 14.7192C25.849 13.6508 24.3719 13.0493 22.8309 13.0464ZM25.0446 19.3881L23.1495 21.2517C23.064 21.3327 22.9498 21.378 22.8309 21.378C22.712 21.378 22.5977 21.3327 22.5122 21.2517L20.6171 19.3881C20.5401 19.3047 20.4986 19.1954 20.5015 19.0829C20.5043 18.9703 20.5511 18.8632 20.6323 18.7836C20.7135 18.704 20.8228 18.6581 20.9375 18.6553C21.0523 18.6525 21.1638 18.6931 21.2488 18.7687L22.3837 19.8814V16.5543C22.3837 16.438 22.4308 16.3265 22.5146 16.2443C22.5985 16.162 22.7123 16.1158 22.8309 16.1158C22.9495 16.1158 23.0632 16.162 23.1471 16.2443C23.231 16.3265 23.2781 16.438 23.2781 16.5543V19.8814L24.4129 18.7687C24.498 18.6931 24.6094 18.6525 24.7242 18.6553C24.839 18.6581 24.9483 18.704 25.0294 18.7836C25.1106 18.8632 25.1575 18.9703 25.1603 19.0829C25.1631 19.1954 25.1217 19.3047 25.0446 19.3881Z" fill="url(#paint5_linear_244_66)"/>
</g>
<defs>
<filter id="filter0_d_244_66" x="6.94025" y="11.1473" width="15.4258" height="15.1988" filterUnits="userSpaceOnUse" color-interpolation-filters="sRGB">
<feFlood flood-opacity="0" result="BackgroundImageFix"/>
<feColorMatrix in="SourceAlpha" type="matrix" values="0 0 0 0 0 0 0 0 0 0 0 0 0 0 0 0 0 0 127 0" result="hardAlpha"/>
<feOffset/>
<feGaussianBlur stdDeviation="0.94952"/>
<feComposite in2="hardAlpha" operator="out"/>
<feColorMatrix type="matrix" values="0 0 0 0 0 0 0 0 0 0 0 0 0 0 0 0 0 0 1 0"/>
<feBlend mode="normal" in2="BackgroundImageFix" result="effect1_dropShadow_244_66"/>
<feBlend mode="normal" in="SourceGraphic" in2="effect1_dropShadow_244_66" result="shape"/>
</filter>
<filter id="filter1_d_244_66" x="14.7178" y="10.7472" width="16.2261" height="15.9991" filterUnits="userSpaceOnUse" color-interpolation-filters="sRGB">
<feFlood flood-opacity="0" result="BackgroundImageFix"/>
<feColorMatrix in="SourceAlpha" type="matrix" values="0 0 0 0 0 0 0 0 0 0 0 0 0 0 0 0 0 0 127 0" result="hardAlpha"/>
<feOffset/>
<feGaussianBlur stdDeviation="1.1496"/>
<feComposite in2="hardAlpha" operator="out"/>
<feColorMatrix type="matrix" values="0 0 0 0 0 0 0 0 0 0 0 0 0 0 0 0 0 0 1 0"/>
<feBlend mode="normal" in2="BackgroundImageFix" result="effect1_dropShadow_244_66"/>
<feBlend mode="normal" in="SourceGraphic" in2="effect1_dropShadow_244_66" result="shape"/>
</filter>
<linearGradient id="paint0_linear_244_66" x1="9.42857" y1="5.85714" x2="24.4286" y2="30.1429" gradientUnits="userSpaceOnUse">
<stop offset="0.145604" stop-color="#3C3C3C"/>
<stop offset="0.837013" stop-color="#131313"/>
</linearGradient>
<linearGradient id="paint1_linear_244_66" x1="8" y1="5.85714" x2="24.4286" y2="30.8571" gradientUnits="userSpaceOnUse">
<stop offset="0.423855" stop-color="#C70AF7"/>
<stop offset="0.970534" stop-color="#3D00EC"/>
</linearGradient>
<linearGradient id="paint2_linear_244_66" x1="9.99222" y1="13.0069" x2="16.1715" y2="28.5784" gradientUnits="userSpaceOnUse">
<stop stop-color="white"/>
<stop offset="0.793252" stop-color="#121212"/>
</linearGradient>
<linearGradient id="paint3_linear_244_66" x1="20.4911" y1="16.6507" x2="23.6399" y2="21.5874" gradientUnits="userSpaceOnUse">
<stop offset="0.423855" stop-color="#C70AF7"/>
<stop offset="0.970534" stop-color="#3D00EC"/>
</linearGradient>
<linearGradient id="paint4_linear_244_66" x1="20.4911" y1="16.6507" x2="23.6399" y2="21.5874" gradientUnits="userSpaceOnUse">
<stop offset="0.423855" stop-color="#C70AF7"/>
<stop offset="0.970534" stop-color="#3D00EC"/>
</linearGradient>
<linearGradient id="paint5_linear_244_66" x1="18.17" y1="13.0069" x2="24.3493" y2="28.5784" gradientUnits="userSpaceOnUse">
<stop stop-color="white"/>
<stop offset="0.793252" stop-color="#121212"/>
</linearGradient>
</defs>
</svg>
